<svg width="30" height="30" viewBox="0 0 30 30" fill="none"
  xmlns="http://www.w3.org/2000/svg">
  <path d="M14.9763 12.666V17.636H21.883C21.5797 19.2344 20.6696 20.5877 19.3046 21.4977L23.4696 24.7294C25.8962 22.4895 27.2963 19.1995 27.2963 15.2911C27.2963 14.3812 27.2146 13.5061 27.0629 12.6662L14.9763 12.666Z" fill="#4285F4"/>
  <path d="M7.78444 17.4424L6.84507 18.1615L3.52002 20.7514C5.63168 24.9397 9.95969 27.8331 14.9763 27.8331C18.4412 27.8331 21.3462 26.6897 23.4696 24.7298L19.3046 21.4981C18.1613 22.2681 16.7029 22.7348 14.9763 22.7348C11.6397 22.7348 8.80476 20.4832 7.78968 17.4498L7.78444 17.4424Z" fill="#34A853"/>
  <path d="M3.51988 9.24805C2.64492 10.9746 2.14331 12.923 2.14331 14.9996C2.14331 17.0763 2.64492 19.0246 3.51988 20.7512C3.51988 20.7628 7.78995 17.4379 7.78995 17.4379C7.53329 16.6679 7.38158 15.8513 7.38158 14.9995C7.38158 14.1477 7.53329 13.3311 7.78995 12.5611L3.51988 9.24805Z" fill="#FBBC05"/>
  <path d="M14.9766 7.27601C16.8666 7.27601 18.5466 7.92933 19.8882 9.18935L23.5632 5.51439C21.3349 3.43776 18.4416 2.16602 14.9766 2.16602C9.95996 2.16602 5.63168 5.04768 3.52002 9.24769L7.78996 12.561C8.8049 9.52766 11.6399 7.27601 14.9766 7.27601Z" fill="#EA4335"/>
</svg>
