<svg width="31" height="30" viewBox="0 0 31 30" fill="none"
  xmlns="http://www.w3.org/2000/svg">
  <g clip-path="url(#clip0_27435_67429)">
    <path d="M15.6667 0C23.9508 0 30.6667 6.71591 30.6667 15C30.6667 23.2841 23.9508 30 15.6667 30C7.38266 30 0.666748 23.2841 0.666748 15C0.666748 6.71591 7.38266 0 15.6667 0Z" fill="#FBE404"/>
    <path d="M14.3422 5.39985C10.2632 5.89369 7.09849 7.90693 5.67006 10.9141C3.8876 14.6677 5.51306 18.9576 9.57362 21.2249C9.93226 21.4252 9.92611 21.411 9.83375 21.7455L9.69214 22.2741C9.65212 22.4318 9.54129 22.8578 9.44586 23.2144C8.85478 25.4706 8.86864 25.4075 8.92713 25.5337C8.99485 25.6789 9.18572 25.7578 9.30886 25.6899C9.38429 25.6489 12.8861 23.2255 13.4818 22.8026C13.6634 22.6732 13.7681 22.6212 13.8158 22.6338C14.57 22.8547 17.1252 22.7742 18.3828 22.4918C24.2874 21.1712 27.6491 16.2991 25.9328 11.5579C24.9816 8.93247 22.3864 6.71729 19.2263 5.83058C18.8107 5.71383 18.2073 5.5813 17.7455 5.50399C16.9205 5.3683 15.0765 5.3115 14.3438 5.39985M13.7081 11.5137C14.0282 11.6368 14.1129 11.7646 14.3946 12.5424L14.6301 13.194C14.6609 13.2729 14.784 13.6232 14.9071 13.9719C15.0303 14.319 15.2642 14.9848 15.4305 15.4487C15.8138 16.5247 15.8215 16.703 15.4921 16.8923C15.0564 17.1448 14.7732 16.9507 14.5531 16.2502L14.4454 15.9062L13.4218 15.8967L12.3997 15.8873L12.2719 16.2849C12.2219 16.4545 12.1548 16.6185 12.0718 16.774C11.764 17.1795 11.059 16.9318 11.059 16.4158C11.059 16.2738 11.0513 16.2928 11.7255 14.4783L12.1288 13.3739C12.6414 11.9665 12.6506 11.946 12.7922 11.7772C13.0616 11.4616 13.3525 11.3764 13.7081 11.5137ZM16.9959 11.52C17.1052 11.5784 17.1745 11.6478 17.2314 11.7614L17.3115 11.9192V15.8131L18.0749 15.8242C19.077 15.8384 19.1909 15.8952 19.1909 16.3827C19.1909 16.8955 19.0293 16.9507 17.5393 16.9318C16.4125 16.9176 16.3771 16.9097 16.2309 16.613L16.1524 16.4521V14.1849C16.1524 11.7803 16.1524 11.7646 16.3171 11.6131C16.4062 11.5268 16.5196 11.4713 16.6411 11.4546C16.7626 11.4379 16.8862 11.4608 16.9944 11.52M20.3238 11.4948C20.6563 11.6368 20.684 11.7314 20.684 12.7096C20.684 13.1451 20.6978 13.5017 20.7132 13.5017C20.7286 13.5017 20.8517 13.3834 20.9841 13.2382C22.1678 11.9571 22.5357 11.5894 22.665 11.5642C23.0929 11.4806 23.4377 11.7661 23.3777 12.1511C23.353 12.3089 23.2053 12.4872 22.4279 13.3076C22.097 13.6563 21.8292 13.9577 21.8353 13.9766C21.8399 13.9955 21.92 14.1123 22.0123 14.2353C23.4885 16.206 23.5177 16.2517 23.4839 16.5105C23.4223 16.9917 22.8158 17.1448 22.468 16.7677C22.3802 16.673 21.6291 15.6364 21.2827 15.1284C21.2117 15.0252 21.1378 14.9242 21.0611 14.8254L20.9764 14.7197L20.8302 14.857L20.684 14.9927V15.7547C20.684 16.4426 20.6778 16.531 20.6132 16.6667C20.4223 17.0738 19.7712 17.0785 19.5926 16.673C19.5311 16.531 19.5264 16.4048 19.5249 14.2227V11.9239L19.6034 11.7661C19.6661 11.6343 19.7761 11.5325 19.9103 11.4819C20.0446 11.4314 20.1927 11.436 20.3238 11.4948ZM11.5839 11.5658C11.9456 11.7567 11.9379 12.3594 11.5716 12.5377C11.4761 12.585 11.3361 12.596 10.8866 12.596H10.3217V14.5572C10.3217 16.4426 10.3186 16.5231 10.2509 16.6667C10.0677 17.0548 9.46587 17.0801 9.24575 16.7077C9.18418 16.6004 9.17803 16.4805 9.1611 14.6045L9.14416 12.615L8.54385 12.596C7.86196 12.5755 7.79731 12.5534 7.68341 12.2963C7.56796 12.0296 7.64647 11.7235 7.86812 11.5847C8.02512 11.4869 11.4038 11.4695 11.5839 11.5658ZM13.3987 12.7712C13.3417 12.8658 12.746 14.7749 12.763 14.8065C12.7984 14.8633 14.0436 14.8491 14.0652 14.7907C14.099 14.7008 13.4387 12.7033 13.3987 12.7712Z" fill="#3C1C1C"/>
  </g>
  <defs>
    <clipPath id="clip0_27435_67429">
      <rect width="30" height="30" fill="white" transform="translate(0.666748)"/>
    </clipPath>
  </defs>
</svg>
