<svg width="30" height="30" viewBox="0 0 30 30" fill="none"
  xmlns="http://www.w3.org/2000/svg">
  <g clip-path="url(#clip0_27435_67450)">
    <path d="M15 29C22.732 29 29 22.732 29 15C29 7.26801 22.732 1 15 1C7.26801 1 1 7.26801 1 15C1 22.732 7.26801 29 15 29Z" fill="url(#paint0_linear_27435_67450)"/>
    <path fill-rule="evenodd" clip-rule="evenodd" d="M7.33719 14.8519C11.4185 13.0738 14.14 11.9015 15.5017 11.3352C19.3896 9.71802 20.1975 9.43711 20.7241 9.42783C20.8399 9.42579 21.0988 9.4545 21.2666 9.5906C21.4082 9.70553 21.4472 9.86078 21.4658 9.96974C21.4845 10.0787 21.5077 10.3269 21.4892 10.5209C21.2785 12.7346 20.3669 18.1067 19.9031 20.5861C19.7069 21.6353 19.3204 21.987 18.9463 22.0215C18.1333 22.0963 17.516 21.4842 16.7285 20.968C15.4963 20.1603 14.8002 19.6575 13.6042 18.8693C12.222 17.9584 13.118 17.4578 13.9057 16.6396C14.1119 16.4255 17.694 13.1673 17.7633 12.8717C17.772 12.8348 17.7801 12.697 17.6982 12.6242C17.6163 12.5515 17.4955 12.5763 17.4083 12.5961C17.2848 12.6242 15.3163 13.9252 11.5031 16.4993C10.9443 16.883 10.4382 17.0699 9.98482 17.0601C9.48494 17.0493 8.52339 16.7775 7.80857 16.5451C6.93182 16.2601 6.235 16.1094 6.29568 15.6254C6.32728 15.3733 6.67445 15.1155 7.33719 14.8519Z" fill="white"/>
  </g>
  <defs>
    <linearGradient id="paint0_linear_27435_67450" x1="15" y1="1" x2="15" y2="28.7923" gradientUnits="userSpaceOnUse">
      <stop stop-color="#2AABEE"/>
      <stop offset="1" stop-color="#229ED9"/>
    </linearGradient>
    <clipPath id="clip0_27435_67450">
      <rect width="28" height="28" fill="white" transform="translate(1 1)"/>
    </clipPath>
  </defs>
</svg>
