<svg width="28" height="28" viewBox="0 0 28 28" fill="none" xmlns="http://www.w3.org/2000/svg">
<g clip-path="url(#clip0_2673_2538)">
<path d="M14 0C21.7318 0 28 6.26818 28 14C28 21.7318 21.7318 28 14 28C6.26818 28 0 21.7318 0 14C0 6.26818 6.26818 0 14 0Z" fill="#FBE404"/>
<path d="M12.8545 6.398C9.4818 6.79636 6.86507 8.42036 5.68398 10.8462C4.21016 13.874 5.55416 17.3345 8.91161 19.1635C9.20816 19.3251 9.20307 19.3136 9.12671 19.5835L9.00961 20.0098C8.97652 20.1371 8.88489 20.4807 8.80598 20.7684C8.31725 22.5884 8.32871 22.5375 8.37707 22.6393C8.43307 22.7564 8.59089 22.82 8.69271 22.7653C8.75507 22.7322 11.6505 20.7773 12.1431 20.4362C12.2933 20.3318 12.3798 20.2898 12.4193 20.3C13.0429 20.4782 15.1556 20.4133 16.1954 20.1855C21.0776 19.1202 23.8573 15.19 22.4382 11.3655C21.6516 9.24763 19.5058 7.46072 16.8929 6.74545C16.5493 6.65127 16.0503 6.54436 15.6685 6.482C14.9863 6.37254 13.4616 6.32672 12.8558 6.398M12.3302 11.3298C12.5949 11.4291 12.6649 11.5322 12.8978 12.1596L13.0925 12.6853C13.118 12.7489 13.2198 13.0315 13.3216 13.3127C13.4234 13.5927 13.6169 14.1298 13.7543 14.504C14.0713 15.372 14.0776 15.5158 13.8053 15.6685C13.4451 15.8722 13.2109 15.7156 13.0289 15.1505L12.9398 14.8731L12.0934 14.8655L11.2483 14.8578L11.1427 15.1785C11.1013 15.3154 11.0459 15.4476 10.9773 15.5731C10.7227 15.9002 10.1398 15.7004 10.1398 15.2842C10.1398 15.1696 10.1334 15.1849 10.6909 13.7213L11.0243 12.8304C11.4482 11.6951 11.4558 11.6785 11.5729 11.5424C11.7956 11.2878 12.0362 11.2191 12.3302 11.3298ZM15.0487 11.3349C15.1391 11.382 15.1963 11.438 15.2434 11.5296L15.3096 11.6569V14.798L15.9409 14.8069C16.7694 14.8184 16.8636 14.8642 16.8636 15.2575C16.8636 15.6711 16.73 15.7156 15.498 15.7004C14.5663 15.6889 14.5371 15.6825 14.4162 15.4433L14.3513 15.3135V13.4845C14.3513 11.5449 14.3513 11.5322 14.4874 11.41C14.5611 11.3404 14.6548 11.2956 14.7553 11.2822C14.8558 11.2687 14.958 11.2871 15.0474 11.3349M17.8003 11.3145C18.0753 11.4291 18.0982 11.5055 18.0982 12.2945C18.0982 12.6458 18.1096 12.9335 18.1223 12.9335C18.1351 12.9335 18.2369 12.838 18.3463 12.7209C19.3251 11.6875 19.6293 11.3909 19.7362 11.3705C20.09 11.3031 20.3751 11.5335 20.3254 11.844C20.3051 11.9713 20.1829 12.1151 19.5402 12.7769C19.2665 13.0582 19.0451 13.3013 19.0502 13.3165C19.054 13.3318 19.1202 13.426 19.1965 13.5253C20.4171 15.1149 20.4413 15.1518 20.4133 15.3605C20.3623 15.7487 19.8609 15.8722 19.5733 15.568C19.5007 15.4916 18.8796 14.6555 18.5933 14.2456C18.5345 14.1624 18.4734 14.0809 18.41 14.0013L18.34 13.916L18.2191 14.0267L18.0982 14.1362V14.7509C18.0982 15.3058 18.0931 15.3771 18.0396 15.4865C17.8818 15.8149 17.3434 15.8187 17.1958 15.4916C17.1449 15.3771 17.1411 15.2753 17.1398 13.5151V11.6607L17.2047 11.5335C17.2565 11.4271 17.3475 11.345 17.4585 11.3042C17.5695 11.2634 17.692 11.2671 17.8003 11.3145ZM10.5738 11.3718C10.8729 11.5258 10.8665 12.012 10.5636 12.1558C10.4847 12.194 10.3689 12.2029 9.99725 12.2029H9.53016V13.7849C9.53016 15.3058 9.52761 15.3707 9.47161 15.4865C9.32016 15.7996 8.82252 15.82 8.64052 15.5196C8.58961 15.4331 8.58452 15.3364 8.57052 13.8231L8.55652 12.2182L8.06016 12.2029C7.49634 12.1864 7.44289 12.1685 7.34871 11.9611C7.25325 11.746 7.31816 11.4991 7.50143 11.3871C7.63125 11.3082 10.4249 11.2942 10.5738 11.3718ZM12.0743 12.3442C12.0273 12.4205 11.5347 13.9605 11.5487 13.986C11.578 14.0318 12.6076 14.0204 12.6254 13.9733C12.6534 13.9007 12.1074 12.2895 12.0743 12.3442Z" fill="#3C1C1C"/>
</g>
<defs>
<clipPath id="clip0_2673_2538">
<rect width="28" height="28" fill="white"/>
</clipPath>
</defs>
</svg>
